:SAMPLES-PER-SECOND 30
:FULLY-SPECIFIED
:DEGREES
610
root  -73.6788 31.1498 -58.3967 18.681 -13.3029 -10.3351
RightUpLeg  -43.637 25.6334 -4.05766
RightLeg  40.4514 2.89863 2.14081
RightFoot  -8.08971 -0.0604441 -0.47725
RightToes  -37.0873 -0.195643 -0.298084
Spine  9.90749 -0.995632 6.54689
Spine1  19.2627 -3.07719 11.1878
HEad  28.9666 6.80478 -4.95521
LeftShoulder1  0 -2.42657e-020 -4.95415e-022
LeftArm  -10.7245 6.35759 -95.4695
LeftForeArm  34.735 -29.3381 -5.67594
LeftHand  -0.284043 -7.83707 3.7783
RightShoulder  0 2.42657e-020 1.07489e-018
RightArm  10.6891 2.7525 67.4976
RightForeArm  84.5302 55.7802 14.9223
RightHand  -9.20023 17.3807 -55.172
LeftUpLeg  -19.7771 1.54303 -7.45675
LeftLeg  57.109 -23.8638 -28.6107
LeftFoot  5.60098 0.192956 -3.94304
LeftToes  -34.6084 3.33339e-006 -4.73431e-007
611
root  -73.7597 30.2083 -57.2851 16.2404 -8.67253 -9.02466
RightUpLeg  -43.0658 21.0199 -2.38019
RightLeg  49.9074 2.51899 2.58063
RightFoot  -14.633 -0.157068 -0.845759
RightToes  -35.2971 -0.182046 -0.287045
Spine  10.8961 0.245176 6.82253
Spine1  21.4053 -0.155213 9.5334
HEad  30.6953 4.39383 -2.71485
LeftShoulder1  0 -2.42657e-020 -4.95415e-022
LeftArm  -6.63592 2.58477 -95.3018
LeftForeArm  33.7617 -28.4833 -5.47883
LeftHand  -0.256984 -7.8824 3.36174
RightShoulder  0 2.42657e-020 1.07489e-018
RightArm  11.2505 12.4111 70.2767
RightForeArm  74.762 38.2938 7.91244
RightHand  -8.80906 19.3278 -48.3215
LeftUpLeg  -23.9275 2.05299 -6.37373
LeftLeg  68.8254 -16.6239 -31.7098
LeftFoot  1.13613 0.00301126 -0.303719
LeftToes  -42.2838 3.33339e-006 -4.73431e-007
612
root  -73.7175 29.5882 -56.1035 14.559 -4.45424 -6.87988
RightUpLeg  -41.2956 17.2661 -2.66795
RightLeg  55.4066 1.84384 2.26949
RightFoot  -19.8366 -0.223007 -0.897803
RightToes  -35.9499 -0.182031 -0.287053
Spine  11.8606 1.7636 6.94653
Spine1  23.3084 3.67197 7.56209
HEad  33.2356 1.48748 -1.40631
LeftShoulder1  0 -2.42657e-020 -4.95415e-022
LeftArm  -3.97065 -2.17784 -96.2057
LeftForeArm  37.8185 -26.6841 -5.06905
LeftHand  -0.21866 -9.06233 2.39048
RightShoulder  0 2.42657e-020 1.07489e-018
RightArm  4.69717 20.2192 72.6331
RightForeArm  67.6017 26.7015 5.01723
RightHand  -6.47635 23.8705 -29.6066
LeftUpLeg  -29.0491 2.11626 -5.90365
LeftLeg  76.0619 -8.98711 -26.2097
LeftFoot  -4.02683 0.0998365 2.83929
LeftToes  -38.7264 3.33339e-006 -4.73431e-007
613
root  -73.5827 29.5419 -54.9108 14.1036 -0.901962 -5.52991
RightUpLeg  -38.1432 15.2872 -2.92159
RightLeg  56.0896 0.79468 0.96336
RightFoot  -22.4291 -0.156319 -0.410873
RightToes  -36.1992 -0.187765 -0.291736
Spine  12.4215 3.37192 7.09822
Spine1  24.5436 8.0365 6.20737
HEad  34.9534 -1.40626 -0.696149
LeftShoulder1  0 -2.42657e-020 -4.95415e-022
LeftArm  -3.76623 -4.71509 -97.8366
LeftForeArm  42.0446 -27.2746 -5.19575
LeftHand  -0.234371 -9.94337 2.32536
RightShoulder  0 2.42657e-020 1.07489e-018
RightArm  -20.8429 28.5744 75.1723
RightForeArm  66.3574 14.5153 2.55382
RightHand  -0.0787506 19.3929 -0.0908985
LeftUpLeg  -35.204 2.87742 -4.60555
LeftLeg  79.2831 -5.07759 -19.0462
LeftFoot  -8.66977 0.299142 3.94476
LeftToes  -29.3024 3.33339e-006 -4.73431e-007
614
root  -73.2366 30.0123 -53.6487 14.0344 2.24841 -3.74872
RightUpLeg  -33.3353 13.4492 -3.9559
RightLeg  52.9374 0.0961335 0.055459
RightFoot  -22.5618 -0.0844976 -0.0460552
RightToes  -36.7434 -0.193005 -0.295997
Spine  12.0926 4.01821 6.56129
Spine1  23.5246 10.1575 5.32953
HEad  36.5077 -4.85942 1.24467
LeftShoulder1  0 -2.42657e-020 -4.95415e-022
LeftArm  -2.3733 -4.25339 -98.2274
LeftForeArm  38.289 -29.6472 -5.74488
LeftHand  -0.309334 -9.04286 3.543
RightShoulder  0 2.42657e-020 1.07489e-018
RightArm  -58.8335 31.4968 71.2259
RightForeArm  67.7114 3.54569 0.570362
RightHand  -0.017261 14.4448 0.23391
LeftUpLeg  -40.3678 3.69979 -4.59728
LeftLeg  76.549 -4.52494 -14.377
LeftFoot  -12.6257 0.447062 4.03948
LeftToes  -20.1179 3.33339e-006 -4.73431e-007
615
root  -72.7636 30.8764 -52.3347 14.4625 6.00011 -2.01398
RightUpLeg  -27.478 11.581 -4.96662
RightLeg  47.1304 -1.12343 -1.10193
RightFoot  -19.9615 0.0213856 0.499088
RightToes  -37.0262 -0.195174 -0.297715
Spine  11.2246 3.59228 5.73133
Spine1  21.4558 9.58725 4.8339
HEad  36.4169 -8.60348 3.69553
LeftShoulder1  0 -2.42657e-020 -4.95415e-022
LeftArm  -0.826348 -3.07424 -97.4886
LeftForeArm  33.3385 -32.6628 -6.48163
LeftHand  -0.311558 -7.99351 4.09047
RightShoulder  0 2.42657e-020 1.07489e-018
RightArm  -59.8635 27.1549 69.0347
RightForeArm  55.175 4.85315 0.828625
RightHand  0.041019 13.6545 0.712956
LeftUpLeg  -43.9115 4.51158 -5.34323
LeftLeg  67.5692 -5.50917 -11.0957
LeftFoot  -13.4568 0.392718 3.32787
LeftToes  -17.786 3.33339e-006 -4.73431e-007
616
root  -72.2666 31.8138 -50.8625 14.9924 9.68185 -0.845581
RightUpLeg  -22.5011 9.87232 -5.29889
RightLeg  42.738 -2.22387 -1.83081
RightFoot  -13.7659 0.0406182 0.714075
RightToes  -42.3566 -0.237577 -0.328044
Spine  10.3829 3.06418 4.92985
Spine1  19.6995 8.88069 3.82542
HEad  35.7997 -11.7499 6.62785
LeftShoulder1  0 -2.42657e-020 -4.95415e-022
LeftArm  0.22666 -1.86134 -96.1683
LeftForeArm  31.5075 -35.8797 -7.32268
LeftHand  -0.297728 -7.45198 4.20334
RightShoulder  0 2.42657e-020 1.07489e-018
RightArm  -65.8543 23.729 68.8038
RightForeArm  48.0747 7.15147 1.24866
RightHand  0.19379 19.4882 1.49895
LeftUpLeg  -45.2584 6.50475 -6.68486
LeftLeg  55.0123 -7.78841 -9.61965
LeftFoot  -12.0696 0.300419 2.8411
LeftToes  -15.2613 3.33339e-006 -4.73431e-007
